<svg id="Lager_1" xmlns="http://www.w3.org/2000/svg" viewBox="0 0 106.8 106.8"><style>.st0{fill:#e9e5d6}.st1{fill:#B9C12D}</style><title>AttTankaPa</title><path class="st0" d="M106.8 53.4c0 29.5-23.9 53.4-53.4 53.4S0 82.9 0 53.4 23.9 0 53.4 0s53.4 23.9 53.4 53.4"/><path class="st1" d="M44.6 80.4c0-1.1.2-2.2.6-3.2.4-1 1-1.8 1.8-2.5s1.8-1.3 2.8-1.7c2.3-.8 4.9-.8 7.2 0 1 .4 2 1 2.8 1.7.8.7 1.4 1.6 1.8 2.5.9 2 .9 4.3 0 6.4-.4 1-1 1.8-1.8 2.5S58 87.4 57 87.8c-2.3.8-4.9.8-7.2 0-1-.4-2-1-2.8-1.7-.8-.7-1.4-1.6-1.8-2.5-.4-1.1-.7-2.2-.6-3.2zM60 65.7H47.1l-2-47.2h17L60 65.7z"/></svg>
