<svg id="Lager_1" xmlns="http://www.w3.org/2000/svg" viewBox="0 0 106.8 106.8"><style>.st0{fill: #B9C12D;} .st1{fill:#e9e5d6}</style><title>Hitta</title><path class="st0" d="M53.3 97.3H44L15.3 32.7l15.4-15.4L54 10l20 5.3 14.7 10-1.4 25.4-16 42z"/><path class="st1" d="M53.4 0C23.9 0 0 23.9 0 53.4s23.9 53.4 53.4 53.4 53.4-23.9 53.4-53.4S82.9 0 53.4 0zm22.9 55.6L55.8 90.4c-2.4 4.5-4.9-.2-4.9-.2L30.5 55.6c-1.4-2.3-2.5-4.9-3.1-7.5-3.6-14.4 5.2-29 19.6-32.5s28.9 5.3 32.4 19.7c.5 2.1.8 4.2.8 6.4 0 4.8-1.4 9.7-3.9 13.9z"/><path class="st1" d="M53.4 21.8c-11 0-19.9 8.9-19.9 19.9s8.9 19.9 19.9 19.9 19.9-8.9 19.9-19.9c0-11-8.9-19.9-19.9-19.9zm0 31.7c-6.6 0-11.9-5.3-11.9-11.9s5.3-11.9 11.9-11.9c6.6 0 11.9 5.3 11.9 11.9 0 6.6-5.3 11.9-11.9 11.9z"/></svg>
