<svg id="Lager_1" xmlns="http://www.w3.org/2000/svg" viewBox="0 0 106.8 106.8"><style>.st0{fill:#e9e5d6}.st1{fill:#B9C12D}</style><title>Oppet</title><path class="st0" d="M106.8 53.5c0 29.5-23.9 53.4-53.4 53.4S0 83 0 53.5 23.9 0 53.4 0s53.4 24 53.4 53.5"/><circle class="st1" cx="53.4" cy="53.4" r="35.7"/><path class="st0" d="M53.4 28c-.6.1-1.3-.2-1.5-.8v-6.7c.5-.8 1.5-1.1 2.4-.6.3.2.5.4.6.6v6.7c-.2.6-.9 1-1.5.8zM53.4 87.5c-.6.1-1.3-.3-1.5-.9v-7.1c.4-.8 1.4-1.2 2.2-.8.3.2.6.4.8.8v7.1c-.2.6-.8 1-1.5.9zM79 54.3c0-.8.4-1.5.8-1.5h6.3c.4 0 .8.7.8 1.5s-.4 1.5-.8 1.5h-6.3c-.5 0-.8-.7-.8-1.5zM74.1 29.9c.6.5.2 2.1-1 3.5L55.6 54.2c-1.2 1.4-2.7 2.1-3.3 1.6s-.2-2.1 1-3.5l17.4-20.8c1.2-1.4 2.7-2.1 3.4-1.6z"/><path class="st0" d="M53.9 55.5c-.7.6-1.8.6-2.4-.1L39.3 45.2c-.8-.3-1.1-1.2-.8-2 .3-.8 1.2-1.1 2-.8.3.1.5.3.7.6l12.1 10.2c.8.4 1.1 1.5.6 2.3zM20.2 53c0-.8.4-1.5.8-1.5h6.4c.4 0 .8.7.8 1.5s-.4 1.5-.8 1.5H21c-.4 0-.8-.6-.8-1.5z"/><circle class="st0" cx="53.4" cy="54.3" r="3.1"/></svg>
