<svg id="Lager_1" xmlns="http://www.w3.org/2000/svg" viewBox="0 0 106.8 106.8"><style>.st0{fill:#e9e5d6}.st1{fill:#B9C12D}.st2{fill:#e9e5d6;stroke:#B9C12D;stroke-width:.6;stroke-miterlimit:10}</style><title>Pris</title><path class="st0" d="M106.8 53.4c0 29.5-23.9 53.4-53.4 53.4S0 82.9 0 53.4 23.9 0 53.4 0s53.4 23.9 53.4 53.4"/><path class="st0" d="M33.3 28.1h46c1.6 0 2.8 1.3 2.8 2.8v28.2c0 1.6-1.3 2.8-2.8 2.8h-46c-1.6 0-2.8-1.3-2.8-2.8V30.9c0-1.6 1.2-2.8 2.8-2.8z"/><path class="st1" d="M79.3 62.5h-46c-1.8 0-3.3-1.5-3.3-3.3V30.9c0-1.8 1.5-3.3 3.3-3.3h46c1.8 0 3.3 1.5 3.3 3.3v28.2c.1 1.9-1.4 3.4-3.3 3.4zm-46-33.9c-1.3 0-2.3 1-2.3 2.3v28.2c0 1.3 1 2.3 2.3 2.3h46c1.3 0 2.3-1 2.3-2.3V30.9c0-1.3-1-2.3-2.3-2.3h-46z"/><path class="st1" d="M30.9 49.4h51.3v4.4H30.9z"/><path class="st0" d="M17.5 42.2L63 35.1c1.5-.2 3 .8 3.2 2.4l4.3 27.9c.2 1.5-.8 3-2.4 3.2l-45.5 7.1c-1.5.2-3-.8-3.2-2.4l-4.3-27.9c-.2-1.5.9-2.9 2.4-3.2z"/><path class="st1" d="M22.3 76.2c-1.6 0-3-1.2-3.3-2.8l-4.3-27.9c-.3-1.8 1-3.5 2.8-3.8L63 34.6c1.8-.3 3.5 1 3.8 2.8l4.3 27.9c.3 1.8-1 3.5-2.8 3.8l-45.5 7.1h-.5zm-4.7-33.5c-1.3.2-2.1 1.4-1.9 2.7L20 73.3c.2 1.3 1.4 2.1 2.7 1.9l45.5-7.1c1.3-.2 2.1-1.4 1.9-2.7l-4.3-27.9c-.2-1.3-1.4-2.1-2.7-1.9l-45.5 7.1z"/><ellipse class="st2" cx="78.4" cy="71.6" rx="8.7" ry="3.2"/><ellipse class="st2" cx="73" cy="69.5" rx="9.1" ry="3.4"/><ellipse class="st2" cx="75.4" cy="67.2" rx="8.7" ry="3.2"/><ellipse class="st2" cx="75.4" cy="65.1" rx="8.7" ry="3.2"/><ellipse class="st2" cx="76.7" cy="64" rx="8.7" ry="3.2"/><ellipse class="st2" cx="75.4" cy="60.7" rx="8.7" ry="3.2"/><path class="st1" d="M36.4 57.4c0 .3 0 .7-.1 1-.1.3-.2.6-.5.9-.2.3-.5.5-.8.6-.4.2-.8.3-1.2.4-.4.1-.9 0-1.3-.1s-.7-.3-1-.5c-.3-.3-.6-.6-.7-1-.2-.4-.3-.9-.4-1.4l-.1-.5c-.1-.5-.1-1 0-1.5.1-.4.2-.8.4-1.2.2-.3.5-.6.8-.8.4-.2.8-.4 1.2-.4.4-.1.8-.1 1.2 0 .4.1.7.2 1 .4.3.2.5.4.7.7.2.3.3.6.4 1l-1.5.2c0-.2-.1-.4-.2-.5-.1-.1-.2-.3-.3-.4-.1-.1-.3-.2-.5-.2h-.6c-.4 0-.8.3-1 .7-.2.6-.3 1.2-.1 1.7l.1.5c0 .3.1.7.2 1 .1.2.2.5.4.7.1.2.3.3.5.4.2.1.5.1.7 0 .2 0 .4-.1.6-.2.3-.1.5-.4.6-.7v-.6l1.5-.2zM41.6 57.6L39 58l-.3 1.5-1.6.2 1.6-7.6 1.4-.2 3.7 6.8-1.5.3-.7-1.4zm-2.4-.9l1.8-.3-1.3-2.6-.5 2.9zM46.8 55.7l-1.2.2.4 2.6-1.5.2-1-7.2 2.7-.4c.4-.1.8-.1 1.1 0 .3 0 .6.1.9.3.3.1.5.4.6.6.2.3.3.6.3.9v.7c0 .4-.2.8-.5 1.1-.1.1-.3.3-.5.4l2 2.7v.2l-1.6.2-1.7-2.5zm-1.4-1l1.2-.2c.2 0 .3-.1.5-.1l.3-.3c.1-.1.1-.2.2-.4v-.5c0-.3-.2-.6-.4-.8-.3-.2-.6-.2-.9-.2l-1.2.2.3 2.3zM51 57.7l-1-7.2 2.2-.3c.5-.1.9-.1 1.4.1.4.1.8.3 1.1.5.3.3.6.6.8 1 .2.4.4.9.4 1.4v.3c.1.5.1 1 0 1.4-.1.4-.3.8-.5 1.2-.2.3-.6.6-.9.9-.4.2-.8.4-1.3.4l-2.2.3zm.6-6.2l.7 4.8.7-.1c.5 0 1-.3 1.2-.8.3-.5.3-1.1.2-1.7v-.3c0-.6-.3-1.2-.7-1.6-.4-.3-.9-.5-1.4-.4l-.7.1z"/></svg>
