<?xml version="1.0" encoding="utf-8"?>
<!-- Generator: Adobe Illustrator 19.1.1, SVG Export Plug-In . SVG Version: 6.00 Build 0)  -->
<svg version="1.1" id="Lager_1" xmlns="http://www.w3.org/2000/svg" xmlns:xlink="http://www.w3.org/1999/xlink" x="0px" y="0px"
	 viewBox="-252 343.2 106.8 106.8" style="enable-background:new -252 343.2 106.8 106.8;" xml:space="preserve">
<style type="text/css">
	.st0{fill:#E9E5D6;}
	.st1{fill:#B8C02B;}
</style>
<title>Oppet</title>
<path class="st0" d="M-145.2,396.7c0,29.5-23.9,53.4-53.4,53.4s-53.4-23.9-53.4-53.4s23.9-53.5,53.4-53.5S-145.2,367.2-145.2,396.7"
	/>
<path class="st0" d="M-198.6,371.2c-0.6,0.1-1.3-0.2-1.5-0.8v-6.7c0.5-0.8,1.5-1.1,2.4-0.6c0.3,0.2,0.5,0.4,0.6,0.6v6.7
	C-197.3,371-198,371.4-198.6,371.2z M-198.6,430.7c-0.6,0.1-1.3-0.3-1.5-0.9v-7.1c0.4-0.8,1.4-1.2,2.2-0.8c0.3,0.2,0.6,0.4,0.8,0.8
	v7.1C-197.3,430.4-197.9,430.8-198.6,430.7z M-173,397.5c0-0.8,0.4-1.5,0.8-1.5h6.3c0.4,0,0.8,0.7,0.8,1.5s-0.4,1.5-0.8,1.5h-6.3
	C-172.7,399-173,398.3-173,397.5z M-177.9,373.1c0.6,0.5,0.2,2.1-1,3.5l-17.5,20.8c-1.2,1.4-2.7,2.1-3.3,1.6s-0.2-2.1,1-3.5
	l17.4-20.8C-180.1,373.3-178.6,372.6-177.9,373.1z"/>
<path class="st0" d="M-198.1,398.7c-0.7,0.6-1.8,0.6-2.4-0.1l-12.2-10.2c-0.8-0.3-1.1-1.2-0.8-2s1.2-1.1,2-0.8
	c0.3,0.1,0.5,0.3,0.7,0.6l12.1,10.2C-197.9,396.8-197.6,397.9-198.1,398.7z M-231.8,396.2c0-0.8,0.4-1.5,0.8-1.5h6.4
	c0.4,0,0.8,0.7,0.8,1.5s-0.4,1.5-0.8,1.5h-6.4C-231.4,397.7-231.8,397.1-231.8,396.2z"/>
<circle class="st0" cx="-198.6" cy="397.5" r="3.1"/>
<g>
	<path class="st1" d="M-238.9,420.4l12.2-18.9l51.2-38.9c5.8,1.8,9,5.8,9.6,12.4l-51.3,38.9L-238.9,420.4z M-232,413.2l2.1,2.7
		l11.5-3.4c1.8-1.4,2.5-2.7,2.5-3.4c0-0.4,0-0.5-0.2-0.7c-0.2-0.2-0.4-0.2-0.7-0.2c-0.7,0-1.9,0.4-3.7,1.2c1.4-1.4,2.3-2.7,2.3-3.5
		c0-0.5-0.2-0.9-0.4-1.1c-0.2-0.2-0.7-0.4-1.2-0.4c-0.5,0-1.8,0.4-3.5,1.2c1.6-1.4,2.3-2.5,2.3-3.5c0-0.4,0-0.5-0.2-0.5
		c-0.2-0.2-0.4-0.2-0.7-0.2c-1.1,0-2.3,0.5-3.5,1.4L-232,413.2z M-222,400.3c0.4-0.2,0.7-0.2,1.1-0.2c1.1,0,1.4,0.5,1.4,1.4v0.4
		l30.8-23.7c-0.9-0.5-1.6-1.1-2.5-1.4L-222,400.3z M-218.3,403.4c1.1,0.4,1.8,1.1,1.8,2.1l31-23.7c-0.4-0.9-0.9-1.6-1.6-2.1
		L-218.3,403.4z M-215.7,407c0.5,0,0.9,0.2,1.1,0.4c0.2,0.2,0.4,0.5,0.4,0.9c0,0.4-0.2,0.9-0.5,1.6l30.8-23.5
		c-0.4-1.1-0.7-1.9-0.9-2.8L-215.7,407z M-184.5,371.8c3.7,1.9,6,5.1,7.1,9.4l9.6-7.3c-0.9-4.6-3.2-7.6-7.1-9.4L-184.5,371.8z"/>
</g>
</svg>
