<svg id="Lager_1" xmlns="http://www.w3.org/2000/svg" viewBox="0 0 106.8 106.8"><style>.st0{fill:#e9e5d6}.st1{fill:#B9C12D}</style><title>Tillganglighet</title><path class="st0" d="M106.9 53.4c0 29.5-23.9 53.4-53.4 53.4S0 82.9 0 53.4 23.9 0 53.4 0s53.4 23.9 53.5 53.4"/><path class="st1" d="M84 75.1h-8.3c-1.4 4.2-4.1 7.9-7.7 10.5-3.7 2.7-8.2 4.2-12.8 4.1-5.7.1-11.2-2.2-15.2-6.2-4.1-3.9-6.4-9.3-6.3-15-.1-3.9.9-7.7 2.9-11 .9.4 2.8.6 5.5.5l-2.3-4.1c.7-.7 1.7-1.6 3-2.8V38.8l3.1-1.7v-.7l-13.1 6.8 8.1 14.2c-3.4.2-5.7-.6-6.9-2.4l-6.1-9.2c-.7-1-1.2-2.2-1.2-3.5-.1-1.3.6-2.5 1.8-3.1l13.7-7.8c1.7-1 3.7-1.6 5.8-1.7 1.4 0 2.8.5 3.7 1.5.9.8 1.4 2 1.4 3.2v17h11.2c1.7 0 3.3 1 4.7 3.1l10.3 15.2h2.4c.7-.1 1.3.1 1.9.4.4.6.5 1.3.4 2v3zm-12.9-6.7L63.5 58H43.2c-2.6 2.8-4 6.6-4 10.4-.1 4.2 1.6 8.2 4.6 11.1 6.2 6.2 16.3 6.2 22.5 0 3.1-2.9 4.8-6.9 4.8-11.1zM53.2 22.7c0 1.7-.5 3.4-1.6 4.8-1.5 2.1-4.5 2.6-6.6 1.1-.4-.3-.8-.7-1.1-1.1-1.1-1.4-1.6-3-1.6-4.8 0-1.7.5-3.4 1.6-4.8 1.5-2.1 4.5-2.6 6.7-1.1.4.3.8.7 1.1 1.1 1 1.4 1.6 3 1.5 4.8z"/></svg>
